<?xml version="1.0" encoding="UTF-8"?>
<svg id="Final_Logo" data-name="Final Logo" xmlns="http://www.w3.org/2000/svg" xmlns:xlink="http://www.w3.org/1999/xlink" viewBox="0 0 500 500">
  <defs>
    <style>
      .cls-1 {
        filter: url(#drop-shadow-4);
      }

      .cls-1, .cls-2, .cls-3, .cls-4, .cls-5, .cls-6, .cls-7, .cls-8 {
        stroke-width: 0px;
      }

      .cls-1, .cls-2, .cls-3, .cls-4, .cls-6, .cls-7, .cls-8 {
        fill: #134268;
      }

      .cls-2 {
        filter: url(#drop-shadow-3);
      }

      .cls-3 {
        filter: url(#drop-shadow-7);
      }

      .cls-9 {
        fill: #eb640c;
        filter: url(#drop-shadow-12);
        font-size: 75px;
        letter-spacing: -.041em;
      }

      .cls-9, .cls-10, .cls-11, .cls-12 {
        font-family: LEMONMILK-Bold, 'LEMON MILK';
        font-weight: 700;
      }

      .cls-10, .cls-11 {
        font-size: 69.396px;
      }

      .cls-10, .cls-11, .cls-12 {
        fill: #0a1d28;
      }

      .cls-4 {
        filter: url(#drop-shadow-2);
      }

      .cls-13 {
        letter-spacing: -.073em;
      }

      .cls-14 {
        stroke: #1892a8;
      }

      .cls-14, .cls-5, .cls-15, .cls-16 {
        fill: none;
      }

      .cls-14, .cls-15, .cls-16 {
        stroke-miterlimit: 10;
        stroke-width: 12px;
      }

      .cls-6 {
        filter: url(#drop-shadow-8);
      }

      .cls-7 {
        filter: url(#drop-shadow-6);
      }

      .cls-17 {
        clip-path: url(#clippath);
      }

      .cls-15 {
        stroke: #0472c3;
      }

      .cls-16 {
        stroke: #0d4ba0;
      }

      .cls-11 {
        filter: url(#drop-shadow-10);
      }

      .cls-18 {
        filter: url(#drop-shadow-9);
      }

      .cls-8 {
        filter: url(#drop-shadow-5);
      }

      .cls-12 {
        filter: url(#drop-shadow-11);
        font-size: 42px;
      }
    </style>
    <filter id="drop-shadow-2" filterUnits="userSpaceOnUse">
      <feOffset dx="1" dy="1"/>
      <feGaussianBlur result="blur" stdDeviation="3"/>
      <feFlood flood-color="#000" flood-opacity=".65"/>
      <feComposite in2="blur" operator="in"/>
      <feComposite in="SourceGraphic"/>
    </filter>
    <filter id="drop-shadow-3" filterUnits="userSpaceOnUse">
      <feOffset dx="1" dy="1"/>
      <feGaussianBlur result="blur-2" stdDeviation="3"/>
      <feFlood flood-color="#000" flood-opacity=".65"/>
      <feComposite in2="blur-2" operator="in"/>
      <feComposite in="SourceGraphic"/>
    </filter>
    <filter id="drop-shadow-4" filterUnits="userSpaceOnUse">
      <feOffset dx="1" dy="1"/>
      <feGaussianBlur result="blur-3" stdDeviation="3"/>
      <feFlood flood-color="#000" flood-opacity=".65"/>
      <feComposite in2="blur-3" operator="in"/>
      <feComposite in="SourceGraphic"/>
    </filter>
    <filter id="drop-shadow-5" filterUnits="userSpaceOnUse">
      <feOffset dx="1" dy="1"/>
      <feGaussianBlur result="blur-4" stdDeviation="3"/>
      <feFlood flood-color="#000" flood-opacity=".65"/>
      <feComposite in2="blur-4" operator="in"/>
      <feComposite in="SourceGraphic"/>
    </filter>
    <filter id="drop-shadow-6" filterUnits="userSpaceOnUse">
      <feOffset dx="1" dy="1"/>
      <feGaussianBlur result="blur-5" stdDeviation="3"/>
      <feFlood flood-color="#000" flood-opacity=".65"/>
      <feComposite in2="blur-5" operator="in"/>
      <feComposite in="SourceGraphic"/>
    </filter>
    <filter id="drop-shadow-7" filterUnits="userSpaceOnUse">
      <feOffset dx="1" dy="1"/>
      <feGaussianBlur result="blur-6" stdDeviation="3"/>
      <feFlood flood-color="#000" flood-opacity=".65"/>
      <feComposite in2="blur-6" operator="in"/>
      <feComposite in="SourceGraphic"/>
    </filter>
    <filter id="drop-shadow-8" filterUnits="userSpaceOnUse">
      <feOffset dx="1" dy="1"/>
      <feGaussianBlur result="blur-7" stdDeviation="3"/>
      <feFlood flood-color="#000" flood-opacity=".65"/>
      <feComposite in2="blur-7" operator="in"/>
      <feComposite in="SourceGraphic"/>
    </filter>
    <filter id="drop-shadow-9" filterUnits="userSpaceOnUse">
      <feOffset dx="1" dy="1"/>
      <feGaussianBlur result="blur-8" stdDeviation="3"/>
      <feFlood flood-color="#000" flood-opacity=".65"/>
      <feComposite in2="blur-8" operator="in"/>
      <feComposite in="SourceGraphic"/>
    </filter>
    <clipPath id="clippath">
      <path class="cls-5" d="m6.5,34.5v501h501V34.5H6.5Zm409.423,353.531c-8.853,18.186-21.538,31.546-37.701,39.713-10.276,5.193-20.291,5.606-26.761,5.685l-198.349,3.844c-3.042.05-7.35-.134-12.378-1.107-26.134-5.061-40.323-25.632-47.142-35.518-22.641-32.824-20.612-69.849-17.389-88.997l1.131-6.718,6.665-1.406c9.407-1.986,19.028-2.993,28.596-2.993,10.095,0,19.672,1.115,28.707,3.3-1.812-3.05-3.5-6.296-5.062-9.766-2.135-4.744-3.445-9.557-4.317-13.915-12.587-1.306-23.335-7.921-31.297-19.327-13.422-19.231-14.604-40.737-3.417-62.192,6.276-12.037,16.312-20.069,29.829-23.873,3.511-.988,7.211-1.489,10.998-1.489,15.744,0,31.319,8.748,38.756,21.767.208.363.411.732.609,1.106,11.868-8.676,24.237-15.088,37.55-19.487,9.625-3.18,20.029-4.726,31.809-4.726,3.378,0,6.842.122,10.591.374,3.989.267,8.239.79,11.686,1.28-.452-2.993-.689-6.373-.266-9.984,1.463-12.474,10.334-24.152,22.074-29.061,1.927-.806,3.45-1.214,4.269-1.433,3.733-1,7.981-1.528,12.286-1.528,10.757,0,21.122,3.232,29.188,9.102,23.365,17.007,19.259,48.19,18.198,54.268-.268,1.528-3.717,14.801-9.211,22.159-1.082,1.449-2.26,2.843-3.526,4.174,3.104,4.654,6.209,9.531,8.354,15.438,4.184,11.523,6.497,21.575,7.279,31.633.08,1.022.173,2.044.266,3.064.382,4.188.775,8.518.402,13.24-.357,4.531-1.183,9.058-2.409,13.439,19.54-8.084,38.552-9.718,50.67-9.718l1.1.004,6.812.051,2.446,6.357c5.886,15.297,17.564,55.004-1.045,93.237Z"/>
    </clipPath>
    <filter id="drop-shadow-10" filterUnits="userSpaceOnUse">
      <feOffset dx="1" dy="1"/>
      <feGaussianBlur result="blur-9" stdDeviation="3"/>
      <feFlood flood-color="#000" flood-opacity=".65"/>
      <feComposite in2="blur-9" operator="in"/>
      <feComposite in="SourceGraphic"/>
    </filter>
    <filter id="drop-shadow-11" filterUnits="userSpaceOnUse">
      <feOffset dx="1" dy="1"/>
      <feGaussianBlur result="blur-10" stdDeviation="1"/>
      <feFlood flood-color="#000" flood-opacity=".4"/>
      <feComposite in2="blur-10" operator="in"/>
      <feComposite in="SourceGraphic"/>
    </filter>
    <filter id="drop-shadow-12" filterUnits="userSpaceOnUse">
      <feOffset dx="2" dy="4"/>
      <feGaussianBlur result="blur-11" stdDeviation="2"/>
      <feFlood flood-color="#000" flood-opacity=".5"/>
      <feComposite in2="blur-11" operator="in"/>
      <feComposite in="SourceGraphic"/>
    </filter>
  </defs>
  <path class="cls-4" d="m218.089,186.154c12.603-4.164,25.508-4.747,38.593-3.87,8.118.544,17.657,2.266,17.657,2.266.708.124,1.291.231,1.674.302.524.192,1.561.486,2.812.236,0,0,.473-.115.877-.32,3.352-1.707-2.11-10.538-1-20,1.08-9.207,8.037-17.671,16-21,1.282-.536,2.266-.804,3-1,8.293-2.221,22.147-1.899,33,6,19.118,13.915,14.823,41.077,14.232,44.464-.266,1.523-3.49,12.696-7.371,17.894-1.934,2.591-4.251,4.959-7.002,7.104-1.31,1.022-1.351,1.732-.479,3.095,3.909,6.109,8.404,11.878,10.92,18.809,3.411,9.397,5.925,18.905,6.71,28.997.383,4.925,1.059,9.795.669,14.742-.727,9.229-3.403,16.206-5.15,20.024-2.43,5.309-3.695,8.071-6.407,10.479-8.52,7.563-22.53,3.819-25.392,2.996,2.484-2.616,5.974-6.675,9.328-12.165,12.239-20.029,11.214-40.301,10.581-46.689-.895-9.037-3.191-15.514-4.053-18.243-1.883-5.962-4.782-11.564-8.587-16.607-5.786-7.669-12.297-14.551-20.511-19.748-15.395-9.739-32.177-13.614-50.224-12.134-13.111,1.075-25.992,3.362-37.887,9.328-11.967,6.002-23.207,13.098-32.525,22.902-6.118,6.436-11.086,13.428-14.923,20.978-3.952,7.778-8.189,15.676-8.56,26.866-.343,10.366,2.74,17.998,3.429,19.641,4.027,9.601,10.393,15.13,16,20,5.806,5.043,10.987,7.999,18,12,6.3,3.594,11.781,6.199,15.747,7.954-1.235,0-2.475.063-3.705-.017-1.344-.087-2.681-.297-4.018-.468-6.887-.88-13.635-2.579-20.05-5.063-5.556-2.152-10.196-6.139-14.847-9.895-8.679-7.01-14.747-16.001-19.268-26.048-2.54-5.644-3.792-11.721-4.634-17.851-.155-1.13-.226-1.881-1.735-1.791-12.987.776-22.885-4.792-30.164-15.219-11.63-16.664-12.029-34.05-2.75-51.845,5.083-9.749,13.143-15.908,23.67-18.87,14.069-3.958,31.126,2.944,38.362,15.612,1.799,3.149,3.022,6.6,4.024,10.097.527,1.839,1.173,2.092,2.722.782,12.883-10.902,27.131-19.403,43.234-24.724"/>
  <path class="cls-2" d="m264.939,255.075c2.031-.639,7.765-3.018,11.291-8.496,2.607-4.051,1.503-6.6-3.121-7.789-2.577-.663-5.199-.56-9.099-.606-2.795-.166-6.82.533-10.852.902-3.079.281-6.222.557-9.189,1.695-3.167,1.214-5.003,3.82-2.875,7.63,1.121,2.007,2.657,3.44,4.657,4.499,1.725.913,3.496,1.626,5.315,2.145,1.552.443,4.037,1.102,7.347,1.053,3.194-.048,5.613-.744,6.527-1.031Z"/>
  <path class="cls-1" d="m298.407,262.929c-.423-1.295-.926-2.549-1.722-3.655-1.83-2.542-4.86-2.868-6.63-.348-1.281,1.825-2.728,3.318-4.322,4.528-3.963,3.009-9.584,4.217-11.771,4.341-6.605.375-7.387-2.769-13.259-2.027-3.478.439-3.53,1.584-9.787,3.794-5.686,2.008-8.529,2.828-12.038,2.915-6.076.151-11.649-1.806-16.951-4.561-2.417-1.255-4.553-.916-6.639.576-1.693,1.211-2.894,2.843-3.677,4.755-2.563,6.263-1.933,12.424.847,18.417,4.459,9.613,11.319,17.38,19.154,24.342,4.774,4.243,10.174,7.877,16.19,9.65,12.573,3.704,24.347,1.25,34.94-6.626,2.628-1.954,4.573-4.413,6.461-7.047,6.557-9.142,9.472-19.57,10.836-30.495.78-6.243.349-12.497-1.631-18.559Zm-35.246,50.265c-7.598,1.091-14.513-2.436-20.026-7.983-1.421-1.429-2.586-3.115-3.846-4.701-1.158-1.456-1.341-3.074-.605-4.762.82-1.884,2.012-2.813,4.177-1.761,3.871,1.88,7.718,3.846,11.716,5.419,10.3,4.053,20.007,1.245,26.764-7.505.237-.307.332-.802,1.096-.794-.786,12.316-6.617,20.269-19.276,22.087Z"/>
  <path class="cls-8" d="m223.788,220.055c-5.574-3.076-11.053-2.768-16.244.829-9.183,6.364-15.912,14.594-18.595,25.655-.972,4.006-1.766,8.064-.952,12.275,1.305,6.754,6.013,10.32,12.255,8.957,1.466-.32,2.892-.951,4.252-1.612,8.339-4.052,15.306-9.955,21.508-16.703,3.816-4.152,6.461-9.083,6.511-14.125-.08-7.404-3.079-12.157-8.735-15.278Zm-8.949,24.341c-3.369.082-4.877-2.329-4.85-5.317.027-3.069,2.466-4.547,5.132-4.724,3.044-.202,3.806,2.352,4.371,4.524-.439,3.077-1.53,5.441-4.653,5.517Z"/>
  <path class="cls-7" d="m309.76,226.843c-7.955-10.094-17.331-17.993-30.586-19.957-5.149-.763-9.842,2.62-10.751,7.735-1.222,6.875,1.199,12.858,5.995,17.26,8.888,8.158,18.934,14.696,30.81,17.888,1.333.358,2.652.416,4.005.052,3.977-1.07,5.654-3.79,5.672-10.031.23-4.547-1.972-8.919-5.145-12.946Zm-21.496,2.044c-2.695-.175-4.509-1.707-4.388-4.504.105-2.439,1.778-3.738,4.257-3.602,2.789.153,3.604,2.187,4.038,4.521-.424,2.183-1.527,3.739-3.907,3.584Z"/>
  <path class="cls-3" d="m88.915,313.045c-1.852,10.997-5.921,44.16,14.134,73.236,6.063,8.79,16.828,24.313,36.601,28.141,2.829.548,25.657,4.572,41.298-11.782,15.411-16.114,11.068-38.41,9.787-42.427-5.909-18.538-18.88-29.126-26.413-34.417-30.049-21.103-65.664-14.807-75.406-12.75Z"/>
  <path class="cls-6" d="m408.2,297.944c-11.527-.087-46.042,1.196-72.429,26.431-7.977,7.629-22.055,21.161-22.721,41.969-.095,2.977-.46,26.935,18.795,40.218,18.973,13.088,41.016,4.999,44.906,3.034,17.952-9.07,26.632-24.044,30.797-32.6,16.612-34.128,4.348-69.446.652-79.052Z"/>
  <g class="cls-18">
    <g class="cls-17">
      <path class="cls-14" d="m129.279,325.019c-5.666-14.236-8.781-29.764-8.781-46.019,0-21.036,5.217-40.854,14.428-58.229,20.897-39.42,62.35-66.273,110.074-66.273,29.954,0,57.437,10.578,78.918,28.203,27.829,22.833,45.584,57.493,45.584,96.299,0,8.595-.871,16.987-2.529,25.091"/>
      <path class="cls-15" d="m397.002,308.4c1.83-9.519,2.789-19.348,2.789-29.4,0-50.515-24.197-95.378-61.634-123.631-25.919-19.561-58.183-31.159-93.157-31.159-59.404,0-110.993,33.463-136.944,82.568-11.395,21.562-17.847,46.139-17.847,72.223,0,15.323,2.226,30.125,6.373,44.102"/>
      <path class="cls-16" d="m427.529,308.453c1.498-8.152,2.188-18.113,2.188-29.453,0-57.206-26.005-108.339-66.839-142.221-31.985-26.54-73.069-42.496-117.879-42.496-70.324,0-131.47,39.299-162.674,97.133-14.063,26.064-22.044,55.892-22.044,87.585,0,21.385,3.254,40.048,8.304,54.926"/>
    </g>
  </g>
  <g id="Text">
    <text id="A.N.I.Ma.L" class="cls-11" transform="translate(82.554 153.83) rotate(-43.559)"><tspan x="0" y="0">a</tspan></text>
    <text class="cls-10" transform="translate(124.605 115.793) rotate(-32.487)"><tspan x="0" y="0">.</tspan></text>
    <text class="cls-10" transform="translate(143.066 102.034) rotate(-21.698)"><tspan x="0" y="0">n</tspan></text>
    <text class="cls-10" transform="translate(193.856 82.967) rotate(-10.191)"><tspan x="0" y="0">.</tspan></text>
    <text class="cls-10" transform="translate(217.305 78.53) rotate(-4.672)"><tspan x="0" y="0">i</tspan></text>
    <text class="cls-10" transform="translate(239.846 76.579) rotate(1.778)"><tspan x="0" y="0">.</tspan></text>
    <text class="cls-10" transform="translate(262.747 74.739) rotate(14.072)"><tspan x="0" y="0">m</tspan></text>
    <text class="cls-10" transform="translate(325.585 90.697) rotate(30.73)"><tspan x="0" y="0">a</tspan></text>
    <text class="cls-10" transform="translate(373.593 120.868) rotate(41.702)"><tspan x="0" y="0">.</tspan></text>
    <text class="cls-10" transform="translate(391.491 135.788) rotate(50.438)"><tspan x="0" y="0">l</tspan></text>
    <text class="cls-12" transform="translate(18.293 466.388)"><tspan x="0" y="0">M</tspan><tspan class="cls-13" x="41.18" y="0">a</tspan><tspan x="73.869" y="0">chine Learning</tspan></text>
    <text class="cls-9" transform="translate(200.011 406.426)"><tspan x="0" y="0">SU</tspan></text>
  </g>
</svg>